<?xml version="1.0" encoding="UTF-8"?>
<svg width="400" height="300" viewBox="0 0 400 300" fill="none" xmlns="http://www.w3.org/2000/svg">
  <!-- Team Work Illustration -->
  <defs>
    <linearGradient id="teamGrad" x1="0%" y1="0%" x2="100%" y2="100%">
      <stop offset="0%" style="stop-color:#10B981;stop-opacity:1" />
      <stop offset="100%" style="stop-color:#059669;stop-opacity:1" />
    </linearGradient>
  </defs>
  
  <!-- Background -->
  <rect width="400" height="300" fill="#F0FDF4"/>
  
  <!-- Table -->
  <ellipse cx="200" cy="220" rx="120" ry="60" fill="#E5E7EB"/>
  <ellipse cx="200" cy="210" rx="120" ry="60" fill="#F3F4F6"/>
  
  <!-- Laptop on table -->
  <rect x="170" y="180" width="60" height="40" rx="3" fill="#374151"/>
  <rect x="173" y="183" width="54" height="34" rx="2" fill="#1F2937"/>
  <rect x="175" y="185" width="50" height="30" rx="1" fill="#111827"/>
  
  <!-- Laptop screen content -->
  <rect x="177" y="187" width="46" height="26" rx="1" fill="#3B82F6"/>
  <rect x="180" y="190" width="15" height="2" rx="0.5" fill="white"/>
  <rect x="180" y="194" width="20" height="1.5" rx="0.5" fill="white"/>
  <rect x="180" y="197" width="18" height="1.5" rx="0.5" fill="white"/>
  
  <!-- Documents on table -->
  <rect x="120" y="190" width="30" height="40" rx="2" fill="white" stroke="#E5E7EB" stroke-width="1"/>
  <rect x="123" y="195" width="24" height="2" rx="0.5" fill="#6B7280"/>
  <rect x="123" y="200" width="20" height="1.5" rx="0.5" fill="#9CA3AF"/>
  <rect x="123" y="204" width="22" height="1.5" rx="0.5" fill="#9CA3AF"/>
  
  <rect x="250" y="195" width="30" height="35" rx="2" fill="white" stroke="#E5E7EB" stroke-width="1"/>
  <rect x="253" y="200" width="24" height="2" rx="0.5" fill="#6B7280"/>
  <rect x="253" y="205" width="20" height="1.5" rx="0.5" fill="#9CA3AF"/>
  <rect x="253" y="209" width="22" height="1.5" rx="0.5" fill="#9CA3AF"/>
  
  <!-- Person 1 (Left) -->
  <circle cx="120" cy="140" r="18" fill="#FBBF24"/>
  <rect x="105" y="158" width="30" height="35" rx="15" fill="#3B82F6"/>
  <rect x="95" y="170" width="15" height="25" rx="7" fill="#FBBF24"/>
  <rect x="125" y="170" width="15" height="25" rx="7" fill="#FBBF24"/>
  <rect x="108" y="193" width="8" height="20" rx="4" fill="#1F2937"/>
  <rect x="118" y="193" width="8" height="20" rx="4" fill="#1F2937"/>
  
  <!-- Person 2 (Center) -->
  <circle cx="200" cy="135" r="20" fill="#F87171"/>
  <rect x="183" y="155" width="34" height="38" rx="17" fill="#10B981"/>
  <rect x="170" y="168" width="16" height="28" rx="8" fill="#F87171"/>
  <rect x="214" y="168" width="16" height="28" rx="8" fill="#F87171"/>
  <rect x="190" y="193" width="9" height="22" rx="4.5" fill="#1F2937"/>
  <rect x="201" y="193" width="9" height="22" rx="4.5" fill="#1F2937"/>
  
  <!-- Person 3 (Right) -->
  <circle cx="280" cy="140" r="18" fill="#A78BFA"/>
  <rect x="265" y="158" width="30" height="35" rx="15" fill="#F59E0B"/>
  <rect x="255" y="170" width="15" height="25" rx="7" fill="#A78BFA"/>
  <rect x="285" y="170" width="15" height="25" rx="7" fill="#A78BFA"/>
  <rect x="268" y="193" width="8" height="20" rx="4" fill="#1F2937"/>
  <rect x="278" y="193" width="8" height="20" rx="4" fill="#1F2937"/>
  
  <!-- Speech bubbles -->
  <ellipse cx="90" cy="100" rx="25" ry="15" fill="white" stroke="#E5E7EB" stroke-width="2"/>
  <path d="M 105 110 L 115 120 L 95 115 Z" fill="white" stroke="#E5E7EB" stroke-width="1"/>
  <circle cx="85" cy="100" r="2" fill="#3B82F6"/>
  <circle cx="90" cy="100" r="2" fill="#3B82F6"/>
  <circle cx="95" cy="100" r="2" fill="#3B82F6"/>
  
  <ellipse cx="310" cy="95" rx="30" ry="18" fill="white" stroke="#E5E7EB" stroke-width="2"/>
  <path d="M 290 108 L 280 118 L 300 113 Z" fill="white" stroke="#E5E7EB" stroke-width="1"/>
  <rect x="295" y="90" width="12" height="3" rx="1" fill="#10B981"/>
  <rect x="295" y="95" width="18" height="2" rx="1" fill="#6B7280"/>
  <rect x="295" y="99" width="15" height="2" rx="1" fill="#6B7280"/>
  
  <!-- Collaboration symbols -->
  <circle cx="200" cy="80" r="25" fill="url(#teamGrad)" opacity="0.8"/>
  <path d="M 185 80 L 195 90 L 215 70" stroke="white" stroke-width="3" fill="none"/>
  <circle cx="215" cy="70" r="3" fill="white"/>
  
  <!-- Floating elements -->
  <circle cx="60" cy="60" r="4" fill="#3B82F6" opacity="0.6"/>
  <circle cx="340" cy="50" r="3" fill="#10B981" opacity="0.6"/>
  <circle cx="350" cy="180" r="5" fill="#F59E0B" opacity="0.6"/>
  <circle cx="50" cy="180" r="3" fill="#EF4444" opacity="0.6"/>
  
  <!-- Connection lines -->
  <path d="M 140 150 Q 170 140 180 150" stroke="#10B981" stroke-width="2" fill="none" opacity="0.7"/>
  <path d="M 220 150 Q 250 140 260 150" stroke="#10B981" stroke-width="2" fill="none" opacity="0.7"/>
  
  <!-- Gear/Settings icon -->
  <circle cx="320" cy="160" r="8" fill="#6B7280"/>
  <circle cx="320" cy="160" r="4" fill="white"/>
  <rect x="318" y="148" width="4" height="6" rx="1" fill="#6B7280"/>
  <rect x="318" y="166" width="4" height="6" rx="1" fill="#6B7280"/>
  <rect x="308" y="158" width="6" height="4" rx="1" fill="#6B7280"/>
  <rect x="326" y="158" width="6" height="4" rx="1" fill="#6B7280"/>
</svg>
